<svg xmlns:xlink="http://www.w3.org/1999/xlink" xmlns="http://www.w3.org/2000/svg" class="main-menu__logo main-menu__logo--color-black" viewBox="0 0 875.33 297.39" width="875.33"  height="297.39" >
              <g data-name="Layer 2">
                <g>
                  <path class="menu-logo-color" d="M322.35,125.35H292.3v81H263.77V4.25h58.58c32.78,0,47.35,17.6,47.35,46.74V78.91C369.7,107.44,355.13,125.35,322.35,125.35Zm18.51-75.27c0-13.36-4.85-20.94-18.21-20.94H292.3v71.63h30.35c13.36,0,18.21-7.89,18.21-20.94Z"></path>
                  <path class="menu-logo-color" d="M449.82,210.94c-32.78,0-56.15-19.42-56.15-52.81V4.25H422.5V158.13c0,17.91,8.81,27.62,27.62,27.62s27.62-9.71,27.62-27.62V4.25h28.53V158.13C506.27,191.52,482.9,210.94,449.82,210.94Z"></path>
                  <path class="menu-logo-color" d="M538.44,206.39V4.25H567v176h64v26.1Z"></path>
                  <path class="menu-logo-color" d="M699.9,210.94c-33.39,0-55.54-21.85-55.54-51.29v-14h28.53v9.41c0,20.64,9.41,31.26,27.31,31.26,17.61,0,26.71-10.62,26.71-26.1,0-17.91-7.89-29.14-33.38-45.23-22.77-14.57-46.74-34.3-46.74-63.43C646.79,22.76,665.91,0,700.2,0,733,0,753.93,21.55,753.93,51.29V64.35H726.61V54.94c0-17-8.19-30.36-27.32-30.36-15.78,0-24,9.41-24,23.07,0,17.91,8.19,27.32,37.33,46.14,29.44,19.12,42.79,36.11,42.79,62.22C755.44,189.39,731.77,210.94,699.9,210.94Z"></path>
                  <path class="menu-logo-color" d="M781.24,206.39V4.25h94.09v26.1H809.77V88h47.34v24.89H809.77v67.38h65.56v26.1Z"></path>
                  <path class="menu-logo-color" d="M44.69,22.94V134.47H26.39V22.94H0V6.18H70.89V22.94Z"></path>
                  <path class="menu-logo-color" d="M138.49,134.47V78.22h-36.4v56.25H83.79V6.18h18.3V61.85h36.4V6.18H156.6V134.47Z"></path>
                  <path class="menu-logo-color" d="M177.4,134.47V6.18h59.71V22.75h-41.6V59.34h30.05v15.8H195.51V117.9h41.6v16.57Z"></path>
                  <path class="menu-logo-color" d="M262.87,222.19h16.68c6.2,0,9.65,3.86,9.65,8.64a7.62,7.62,0,0,1-5.89,7.78c3.61.56,6.56,4.17,6.56,8.34,0,5.24-3.51,9.15-9.87,9.15H262.87Zm15.46,14c3.05,0,4.77-1.83,4.77-4.37s-1.72-4.42-4.77-4.42h-9.51v8.79Zm.25,14.64c3.25,0,5.19-1.78,5.19-4.73,0-2.54-1.78-4.67-5.19-4.67h-9.76v9.4Z"></path>
                  <path class="menu-logo-color" d="M303.9,242l-13.17-19.83h6.82l9.35,14.54,9.25-14.54H323L309.85,242V256.1h-6Z"></path>
                  <path class="menu-logo-color" d="M370.53,297.39h-9.36l-3.92-39.95-4.46,39.95h-9.25l-8.28-72.49h10.89l3.48,45.72,4.25-45.72h8.38l3.59,45.72L370,224.9h10.12Z"></path>
                  <path class="menu-logo-color" d="M395.57,297.39V224.9h11.21v72.49Z"></path>
                  <path class="menu-logo-color" d="M435.4,286.72h13v10.67H423.1v-3.81l13.61-58H423.87V224.9H449v3.81Z"></path>
                  <path class="menu-logo-color" d="M465.77,297.39V224.9h23.51v10.45H477v19.81h8.17v9.9H477v21.56h12.3v10.77Z"></path>
                  <path class="menu-logo-color" d="M507.78,297.39V224.9h7.84v65h14.7v7.51Z"></path>
                  <path class="menu-logo-color" d="M548.93,297.39V224.9h7.94v72.49Z"></path>
                  <path class="menu-logo-color" d="M601.06,297.39l-12.3-36.68-3.48-11.65v48.33h-7.4V224.9H585l11.21,37.23,3.27,11.75v-49h7.4v72.49Z"></path>
                  <path class="menu-logo-color" d="M627.73,297.39V224.9h23.08v7.29H635.57v24.17h11v7.07h-11V290.1h15.24v7.29Z"></path>
                  <path class="menu-logo-color" d="M665.05,224.31a4.44,4.44,0,0,1,2.14.56,4,4,0,0,1,1.61,1.6,4.36,4.36,0,0,1,0,4.33,4.13,4.13,0,0,1-1.6,1.61,4.38,4.38,0,0,1-4.32,0,4.13,4.13,0,0,1-1.6-1.61,4.3,4.3,0,0,1,0-4.33,4,4,0,0,1,1.61-1.6A4.44,4.44,0,0,1,665.05,224.31Zm0,.85a3.53,3.53,0,0,0-1.72.45,3.12,3.12,0,0,0-1.29,1.28,3.44,3.44,0,0,0,0,3.49,3.24,3.24,0,0,0,1.28,1.29,3.44,3.44,0,0,0,3.47,0,3.33,3.33,0,0,0,1.29-1.29,3.49,3.49,0,0,0,.46-1.74,3.56,3.56,0,0,0-.47-1.75,3.2,3.2,0,0,0-1.3-1.28A3.53,3.53,0,0,0,665.06,225.16Zm-2,5.81v-4.61H664c.87,0,1.36,0,1.47,0a1.64,1.64,0,0,1,.72.18,1.21,1.21,0,0,1,.43.44,1.35,1.35,0,0,1,.17.66,1.23,1.23,0,0,1-.32.85,1.51,1.51,0,0,1-.92.44,1,1,0,0,1,.32.17,2.15,2.15,0,0,1,.31.36,5.53,5.53,0,0,1,.34.56l.55.93h-1.16l-.38-.75a3.13,3.13,0,0,0-.65-.95,1,1,0,0,0-.64-.19H664V231Zm.94-2.62h.37a4.84,4.84,0,0,0,1-.06.63.63,0,0,0,.31-.22.61.61,0,0,0,0-.7.58.58,0,0,0-.31-.21,4.64,4.64,0,0,0-1-.07H664Z"></path>
                </g>
              </g>
            </svg>